<?xml version="1.0" standalone="no"?>
<!DOCTYPE svg PUBLIC "-//W3C//DTD SVG 20010904//EN"
 "http://www.w3.org/TR/2001/REC-SVG-20010904/DTD/svg10.dtd">
<svg version="1.0" xmlns="http://www.w3.org/2000/svg"
 width="960.000000pt" height="960.000000pt" viewBox="0 0 960.000000 960.000000"
 preserveAspectRatio="xMidYMid meet">
<metadata>
Created by potrace 1.11, written by Peter Selinger 2001-2013
</metadata>
<g transform="translate(0.000000,960.000000) scale(0.100000,-0.100000)"
fill="#000000" stroke="none">
<path d="M0 4800 l0 -4800 4800 0 4800 0 0 4800 0 4800 -4800 0 -4800 0 0
-4800z m5850 3450 c492 -37 801 -200 948 -503 89 -181 123 -363 123 -648 -1
-329 -53 -664 -172 -1096 l-31 -113 -369 0 -368 0 19 68 c34 123 89 376 112
507 18 109 22 169 22 370 1 266 -4 304 -60 421 -57 121 -159 199 -321 246 -69
20 -99 23 -268 22 -171 0 -199 -3 -285 -26 -52 -14 -126 -40 -164 -57 -297
-135 -568 -470 -711 -881 -42 -121 -824 -3249 -854 -3415 -66 -368 -12 -685
143 -852 67 -72 144 -119 249 -152 75 -23 97 -25 267 -25 205 0 267 9 407 64
177 68 331 198 452 384 162 249 308 610 427 1054 l38 142 367 0 367 0 -25 -92
c-121 -454 -209 -729 -300 -938 -274 -630 -573 -966 -1040 -1167 -228 -98
-422 -143 -712 -164 -250 -18 -527 9 -721 72 -182 59 -361 178 -462 307 -232
296 -305 731 -213 1267 25 148 808 3305 870 3510 206 681 627 1229 1140 1488
336 169 709 238 1125 207z"/>
</g>
</svg>
